HIERARCHY
ROOT Hips
{
	OFFSET 56.877701 -32.693596 43.373703
	CHANNELS 6 Xposition Yposition Zposition Zrotation Xrotation Yrotation
	JOINT Chest
	{
		OFFSET -0.779999 1.005800 5.403099
		CHANNELS 6 Xposition Yposition Zposition Zrotation Xrotation Yrotation
		JOINT Chest2
		{
			OFFSET 0.000000 0.000000 4.236801
			CHANNELS 6 Xposition Yposition Zposition Zrotation Xrotation Yrotation
			JOINT Neck
			{
				OFFSET 0.000000 0.000000 9.874401
				CHANNELS 6 Xposition Yposition Zposition Zrotation Xrotation Yrotation
				JOINT Head
				{
					OFFSET 0.000000 0.000002 2.173893
					CHANNELS 6 Xposition Yposition Zposition Zrotation Xrotation Yrotation
					End Site
					{
						OFFSET 0.000000 0.000000 6.508102
					}
				}
			}
			JOINT LeftCollar
			{
				OFFSET 2.681599 -0.377600 5.432499
				CHANNELS 6 Xposition Yposition Zposition Zrotation Xrotation Yrotation
				JOINT LeftShoulder
				{
					OFFSET 5.161499 0.000000 0.000000
					CHANNELS 6 Xposition Yposition Zposition Zrotation Xrotation Yrotation
					JOINT LeftElbow
					{
						OFFSET 0.000000 0.000000 -10.869099
						CHANNELS 6 Xposition Yposition Zposition Zrotation Xrotation Yrotation
						JOINT LeftWrist
						{
							OFFSET 0.000000 0.000000 -13.344799
							CHANNELS 6 Xposition Yposition Zposition Zrotation Xrotation Yrotation
							End Site
							{
								OFFSET 0.000000 0.000000 -2.173901
							}
						}
					}
				}
			}
			JOINT RightCollar
			{
				OFFSET -2.381901 -1.419600 6.136600
				CHANNELS 6 Xposition Yposition Zposition Zrotation Xrotation Yrotation
				JOINT RightShoulder
				{
					OFFSET -4.550499 0.000000 0.000000
					CHANNELS 6 Xposition Yposition Zposition Zrotation Xrotation Yrotation
					JOINT RightElbow
					{
						OFFSET 0.000000 0.000000 -11.106499
						CHANNELS 6 Xposition Yposition Zposition Zrotation Xrotation Yrotation
						JOINT RightWrist
						{
							OFFSET 0.000000 0.000000 -12.874298
							CHANNELS 6 Xposition Yposition Zposition Zrotation Xrotation Yrotation
							End Site
							{
								OFFSET 0.000000 0.000000 -2.173901
							}
						}
					}
				}
			}
		}
	}
	JOINT LeftHip
	{
		OFFSET 2.431900 0.469601 -2.489399
		CHANNELS 6 Xposition Yposition Zposition Zrotation Xrotation Yrotation
		JOINT LeftKnee
		{
			OFFSET 0.000000 -0.000004 -18.200201
			CHANNELS 6 Xposition Yposition Zposition Zrotation Xrotation Yrotation
			JOINT LeftAnkle
			{
				OFFSET 0.000000 0.000000 -16.279900
				CHANNELS 6 Xposition Yposition Zposition Zrotation Xrotation Yrotation
				End Site
				{
					OFFSET 0.000000 -8.394100 0.000000
				}
			}
		}
	}
	JOINT RightHip
	{
		OFFSET -1.987999 -0.073502 -2.713001
		CHANNELS 6 Xposition Yposition Zposition Zrotation Xrotation Yrotation
		JOINT RightKnee
		{
			OFFSET 0.000000 -0.000004 -19.547802
			CHANNELS 6 Xposition Yposition Zposition Zrotation Xrotation Yrotation
			JOINT RightAnkle
			{
				OFFSET 0.000000 0.000000 -14.881199
				CHANNELS 6 Xposition Yposition Zposition Zrotation Xrotation Yrotation
				End Site
				{
					OFFSET 0.000000 -7.922699 0.000000
				}
			}
		}
	}
}
MOTION
Frames: 9
Frame Time: 0.041667
64.825897 -34.062397 27.889603 4240.737469 23.195158 -4.996543 -0.779990 1.005803 5.403107 -12.945090 3.278583 -3.521967 0.000009 0.000000 4.236800 4.431331 2.820658 0.589069 0.000002 -0.000001 9.874393 -7.633039 24.222135 3.742241 0.000002 0.000002 2.173894 -1.027609 3.485511 -0.743567 2.681595 -0.377598 5.432495 -20.487272 5.139270 -11.341097 5.161503 -0.000012 -0.000001 199.060099 -131.888412 191.145357 0.000000 0.000017 -10.869102 59.054533 -11.770394 31.065401 0.000002 0.000002 -13.344800 36.250187 -16.606719 43.164999 -2.381900 -1.419600 6.136597 13.765381 1.332337 5.241444 -4.550496 -0.000009 -0.000002 -1244.516420 -496.632835 -511.873173 -0.000002 -0.000002 -11.106497 679.371323 -31.996417 699.481039 0.000002 -0.000006 -12.874296 -414.349656 10.623666 -67.435380 2.431896 0.469614 -2.489402 -53.345413 27.575142 13.604589 0.000005 0.000000 -18.200201 5.155105 18.097781 17.861921 0.000001 -0.000001 -16.279884 13.739682 21.177205 7.823543 -1.987997 -0.073493 -2.712996 -124.425105 -35.138871 -107.879894 -0.000007 0.000001 -19.547794 -1438.455543 93.234637 -334.396472 0.000002 0.000005 -14.881199 2143.719894 33.276064 -343.977916
64.896797 -34.063293 27.740103 4240.687199 22.294559 -4.497338 -0.779996 1.005792 5.403092 -12.810507 2.871539 -3.618154 0.000007 -0.000006 4.236804 4.436469 2.973076 0.477129 0.000002 -0.000011 9.874401 -7.918412 24.552266 3.614139 -0.000004 -0.000008 2.173887 -1.046587 3.570536 -0.682196 2.681602 -0.377609 5.432500 -20.634626 5.115922 -11.175262 5.161501 -0.000002 -0.000007 199.337432 -134.049320 191.345455 -0.000005 0.000013 -10.869098 57.812900 -11.367371 29.100096 0.000005 0.000004 -13.344801 37.037766 -17.087199 43.650291 -2.381903 -1.419608 6.136593 13.539674 1.163100 5.411945 -4.550501 -0.000011 -0.000002 -1248.020471 -497.963957 -515.106311 -0.000002 -0.000010 -11.106499 680.505407 -30.512460 700.338310 0.000003 -0.000008 -12.874290 -415.153788 9.605947 -66.642511 2.431897 0.469589 -2.489402 -55.585043 28.442521 15.456829 0.000006 -0.000007 -18.200211 6.045846 17.338019 18.063349 -0.000005 0.000002 -16.279900 15.882060 20.084002 9.398106 -1.988001 -0.073507 -2.713000 -124.151392 -34.981719 -107.054350 -0.000006 -0.000000 -19.547787 -1439.237900 93.694090 -333.581494 0.000002 -0.000001 -14.881197 2143.627878 33.204408 -344.057474
64.961899 -34.053387 27.595505 4240.771128 21.310226 -4.033482 -0.779989 1.005803 5.403097 -13.056477 2.503543 -3.716563 -0.000000 0.000012 4.236800 4.643515 3.128955 0.503876 0.000003 0.000000 9.874402 -7.941615 24.894320 3.328021 0.000001 -0.000000 2.173893 -0.952121 3.483529 -0.684979 2.681604 -0.377596 5.432501 -20.676176 4.870685 -11.258279 5.161505 -0.000009 0.000001 199.796980 -136.584577 191.662389 0.000002 0.000008 -10.869093 56.677111 -10.887918 27.285393 0.000002 -0.000002 -13.344810 37.772421 -17.007857 43.850146 -2.381897 -1.419602 6.136594 13.247958 0.898718 5.323431 -4.550498 -0.000010 -0.000004 -1251.238747 -499.656806 -517.984389 0.000006 -0.000011 -11.106489 680.322741 -29.117079 700.464586 0.000003 -0.000004 -12.874299 -415.097999 8.364823 -65.315371 2.431908 0.469610 -2.489399 -57.579553 29.317419 17.196166 0.000007 -0.000006 -18.200199 6.742675 16.683135 18.266605 0.000000 0.000009 -16.279888 17.948484 19.187560 10.433503 -1.987991 -0.073495 -2.713006 -123.752837 -34.780092 -105.901147 -0.000003 -0.000000 -19.547785 -1450.335701 94.727122 -322.182755 -0.000001 0.000001 -14.881199 2142.994037 32.970228 -344.874966
65.024597 -34.044994 27.458504 4240.878225 20.360570 -3.546157 -0.779992 1.005798 5.403093 -13.139825 2.063877 -3.837750 0.000002 0.000003 4.236811 4.692336 3.366659 0.540793 0.000003 0.000001 9.874402 -7.728435 25.209339 2.893211 -0.000001 0.000005 2.173892 -0.996048 3.271156 -0.668493 2.681600 -0.377597 5.432503 -20.506156 4.615041 -11.468195 5.161495 -0.000015 -0.000007 199.836514 -138.949571 191.787204 0.000001 0.000004 -10.869102 55.472423 -10.357478 25.380553 0.000005 -0.000004 -13.344804 38.148659 -17.169692 44.307966 -2.381896 -1.419604 6.136595 12.788070 0.417188 5.289670 -4.550502 -0.000008 0.000000 -1253.841213 -501.564505 -520.483911 -0.000002 -0.000004 -11.106500 680.531690 -27.932656 701.068539 -0.000001 -0.000002 -12.874296 -416.016222 7.250030 -64.529756 2.431899 0.469606 -2.489403 -59.346571 30.107170 18.789692 0.000004 -0.000003 -18.200211 7.394056 16.177861 18.458772 -0.000013 0.000001 -16.279888 19.890916 18.463343 11.554768 -1.987991 -0.073500 -2.713000 -123.436627 -34.516860 -104.973963 -0.000008 -0.000001 -19.547798 -1457.682908 95.990843 -314.338174 -0.000002 0.000006 -14.881196 2142.294407 32.815630 -345.951294
65.081902 -34.024296 27.327702 4241.303555 19.367666 -3.269458 -0.779982 1.005803 5.403100 -13.546458 1.604152 -3.812609 0.000002 -0.000005 4.236802 4.880887 3.510102 0.565309 0.000004 -0.000008 9.874397 -7.506271 25.675101 2.231180 -0.000001 0.000008 2.173893 -1.158375 3.159963 -0.609358 2.681594 -0.377606 5.432495 -20.584800 4.642230 -11.426620 5.161500 0.000001 -0.000005 199.975563 -141.006919 191.617897 -0.000008 0.000008 -10.869097 54.116002 -9.825190 23.444778 0.000004 -0.000002 -13.344811 38.132806 -17.256007 42.416011 -2.381896 -1.419604 6.136589 12.760685 0.582573 4.927625 -4.550498 -0.000000 -0.000010 -1256.622793 -503.555860 -522.305659 0.000003 -0.000011 -11.106500 679.496015 -26.874093 700.638073 0.000007 -0.000006 -12.874302 -416.134794 6.217794 -64.513780 2.431911 0.469593 -2.489403 -60.701851 30.876519 20.058831 -0.000010 0.000004 -18.200212 7.715204 16.013083 18.670334 -0.000008 -0.000001 -16.279888 21.413229 17.691594 12.437919 -1.987995 -0.073504 -2.713001 -123.526170 -34.217277 -103.539664 -0.000004 -0.000001 -19.547792 -1469.473017 98.117430 -302.555332 -0.000001 0.000002 -14.881198 2140.408619 32.640596 -346.055960
65.139702 -34.000900 27.212500 4241.662440 18.405744 -2.973090 -0.779988 1.005793 5.403096 -13.689225 1.091437 -3.753673 -0.000001 0.000000 4.236799 4.880945 3.665716 0.588961 -0.000001 -0.000001 9.874399 -7.380229 26.078395 1.701375 -0.000001 0.000012 2.173894 -1.213028 3.083461 -0.621907 2.681597 -0.377600 5.432501 -20.410569 4.609675 -11.585713 5.161503 -0.000008 0.000000 199.952531 -143.088788 191.549213 0.000003 0.000008 -10.869089 52.729398 -9.274047 21.505049 0.000000 -0.000004 -13.344802 37.612383 -17.309900 40.358994 -2.381902 -1.419600 6.136594 12.360863 0.263671 4.507623 -4.550493 -0.000007 0.000002 -1258.888668 -505.763050 -523.871029 0.000000 -0.000008 -11.106503 679.880145 -25.825936 701.313715 -0.000008 -0.000004 -12.874289 -415.325061 6.001087 -66.453957 2.431906 0.469599 -2.489401 -62.033581 31.594775 21.302472 -0.000004 0.000000 -18.200199 7.966554 15.795091 18.861812 -0.000001 -0.000008 -16.279890 22.768041 16.887586 13.219516 -1.987988 -0.073509 -2.712998 -123.339392 -34.127894 -102.919169 -0.000003 -0.000002 -19.547798 -1466.688376 98.257271 -304.961553 0.000003 0.000003 -14.881199 2139.950723 32.751741 -345.726335
65.193100 -33.976696 27.109903 4241.779155 17.102357 -3.111522 -0.779987 1.005792 5.403100 -13.761802 0.829897 -2.830494 0.000004 -0.000002 4.236798 5.354797 3.885766 0.629189 -0.000005 -0.000010 9.874397 -7.556027 26.462866 1.043207 0.000002 -0.000007 2.173896 -1.102523 2.891903 -0.698157 2.681599 -0.377610 5.432496 -20.246848 4.080740 -12.370551 5.161503 0.000003 -0.000003 200.045162 -145.747248 191.806301 0.000001 0.000011 -10.869101 51.158619 -8.719752 19.716869 0.000001 -0.000006 -13.344804 36.899571 -17.094123 37.705206 -2.381899 -1.419613 6.136592 11.545392 -0.457324 4.222981 -4.550492 0.000001 -0.000001 -1261.384801 -508.672000 -526.020243 0.000005 -0.000004 -11.106503 680.627367 -24.890773 702.353653 -0.000004 -0.000006 -12.874291 -413.948778 7.181588 -66.605204 2.431901 0.469598 -2.489391 -63.409987 32.021914 23.144796 0.000003 0.000000 -18.200195 7.894136 15.571421 19.032600 -0.000008 0.000001 -16.279890 24.131991 16.118761 13.891806 -1.987993 -0.073504 -2.713003 -122.830994 -34.519373 -102.270478 0.000000 -0.000001 -19.547798 -1465.601556 99.037989 -305.273939 -0.000002 0.000008 -14.881196 2139.204101 32.736837 -346.156145
65.236610 -33.953999 27.022905 4242.283168 15.558152 -3.549900 -0.779998 1.005800 5.403096 -14.207389 0.754805 -1.489174 0.000003 -0.000007 4.236799 6.014110 4.087875 0.671769 0.000001 -0.000010 9.874393 -7.720405 26.842580 -0.026272 -0.000002 0.000002 2.173896 -1.246060 2.843330 -0.731400 2.681598 -0.377596 5.432499 -20.230037 3.646068 -13.388577 5.161499 -0.000004 0.000004 199.666551 -148.304430 191.749242 0.000003 0.000010 -10.869099 49.654905 -8.251610 17.998624 -0.000002 -0.000002 -13.344802 36.253360 -17.155311 35.093556 -2.381894 -1.419605 6.136590 10.904823 -0.879208 4.074526 -4.550498 -0.000001 -0.000001 -1264.201353 -511.566197 -528.137220 0.000003 -0.000002 -11.106503 681.614412 -24.080496 703.395174 0.000002 -0.000006 -12.874300 -411.997885 9.080369 -66.767585 2.431900 0.469597 -2.489397 -65.825777 32.215298 25.586585 0.000006 -0.000010 -18.200199 8.517044 15.227637 19.114129 0.000003 -0.000003 -16.279890 25.263415 15.574850 14.581469 -1.987995 -0.073499 -2.713006 -123.567753 -34.876363 -98.723261 -0.000009 -0.000000 -19.547791 -1486.315826 110.263767 -285.264845 0.000000 0.000002 -14.881195 2132.288890 31.320857 -350.172242
65.271797 -33.924393 26.943703 4242.975148 13.629350 -4.290192 -0.779994 1.005815 5.403097 -15.115152 1.016187 0.314745 0.000009 0.000005 4.236794 7.089819 4.284241 0.712654 0.000011 -0.000006 9.874399 -8.064613 27.236457 -1.057039 0.000005 0.000003 2.173891 -1.284557 2.721832 -0.757783 2.681602 -0.377598 5.432500 -20.356423 2.906463 -14.515670 5.161494 0.000005 -0.000004 199.320001 -151.161457 191.621804 0.000007 0.000007 -10.869098 47.862882 -7.860620 16.487296 0.000002 0.000002 -13.344798 35.438911 -16.861331 31.920821 -2.381894 -1.419594 6.136593 10.629485 -0.868990 4.130604 -4.550499 -0.000001 -0.000004 -1269.140618 -514.215545 -530.877874 0.000006 -0.000006 -11.106501 684.126938 -23.538796 704.177095 0.000001 -0.000006 -12.874294 -410.269847 10.537704 -66.625640 2.431908 0.469608 -2.489393 -68.508669 32.307628 28.436912 0.000000 -0.000003 -18.200203 8.868882 14.911483 19.198093 0.000003 -0.000000 -16.279900 26.340643 14.988283 15.145089 -1.987995 -0.073497 -2.712998 -123.458675 -35.803811 -97.781296 -0.000003 -0.000001 -19.547802 -1484.328186 110.804369 -286.274183 0.000001 0.000005 -14.881198 2131.778975 31.297822 -350.826082
